<?xml version="1.0" encoding="utf-8"?>
<!-- Generator: Adobe Illustrator 19.0.0, SVG Export Plug-In . SVG Version: 6.00 Build 0)  -->
<svg version="1.1" id="レイヤー_1" xmlns="http://www.w3.org/2000/svg" xmlns:xlink="http://www.w3.org/1999/xlink" x="0px"
	 y="0px" viewBox="0 0 569 54" style="enable-background:new 0 0 569 54;" xml:space="preserve">
<g id="XMLID_2_">
	<path id="XMLID_3_" d="M49.7,5.7l-0.6,7.7l-24.5,2.3L23.5,26l20.8-0.8v7.5c-4.3,0.3-7.7,0.6-10.1,0.8c-2.4,0.3-6,0.8-10.7,1.7v13.8
		l-11.8,0.2c0.2-8.5,0.5-14.8,0.8-19C12.9,24.7,13.8,17,15.1,7L49.7,5.7z"/>
	<path id="XMLID_5_" d="M67.4,19.3c-0.8,3.3-1.5,6.5-2.3,9.6c-1.7,6.7-1.9,10.6-0.6,11.9c0.7,0.7,2,1,3.7,0.8
		c1.9-0.4,3.9-1.9,6.2-4.6l1.1-7.7L77.3,18l9.9,0.2c-0.8,6.1-1.3,11.3-1.7,15.4c-0.2,4-0.4,9.1-0.6,15.2l-11.5,0.2l0.3-3.5
		c-3.4,2.1-6.2,3.3-8.4,3.5c-4.7,0.7-8.1-0.3-10.1-3.1c-1.3-1.8-1.8-4.8-1.4-9c0.2-1.9,0.7-5.4,1.7-10.4c0.6-3.1,1.1-6,1.7-9
		L67.4,19.3z"/>
	<path id="XMLID_7_" d="M103.2,34.9l-1.1,13.6l-11.3,0.4L94.5,18h11l-1.1,7.1c2.1-1.8,3.9-3.3,5.6-4.4c2.6-1.8,5.1-2.8,7.3-2.9
		c1.9-0.1,3.5,0.3,4.8,1.3c1.5,1.1,2.3,2.8,2.5,5c0.2,1.9-0.3,4.7-1.4,8.1l-11-0.2c0.7-1.8,0.8-3,0.3-3.5c-0.8-0.7-2-0.3-3.7,1
		L103.2,34.9z"/>
	<path id="XMLID_9_" d="M139.5,48.7H128l4.2-30.9l10.7,0.6l-0.3,3.3c4.3-2.5,8.4-3.8,12.1-3.8c3.9,0,6.8,0.6,8.4,1.9
		c1.9,1.4,3,2.9,3.4,4.4c0.4,1.5,0.6,3.5,0.6,6l-0.6,18.4h-13l1.1-10.6c0.4-3.5,0.6-6.4,0.6-8.8c0-2.5-0.7-3.9-2-4.2
		c-1.3-0.3-2.7-0.1-4.2,0.6c-1.7,0.8-2.9,1.5-3.7,1.9c-1.9,1.1-3.3,2.2-4.2,3.3c-0.6,2.2-0.9,4.7-1.1,7.5L139.5,48.7z"/>
	<path id="XMLID_11_" d="M184.9,18.7l-1.1,30.2h-13l2.5-30.7L184.9,18.7z M174.2,14.9c-1.3-1-2-2.2-2-3.8c0-1.9,0.7-3.4,2-4.4
		c1.3-1,3.1-1.5,5.4-1.5c2.3,0,3.9,0.4,5.1,1.3c1.3,1,2,2.4,2,4.2c0,1.7-0.7,3-2,4c-1.3,1-3.1,1.5-5.4,1.5
		C177,16.2,175.3,15.7,174.2,14.9z"/>
	<path id="XMLID_14_" d="M199.5,23.3l3.4-17.7l11,0.6L211,23h9.6v6l-10.1,0.4l-1.1,19H197l1.4-17.9l-8.4,1l0.6-8.1L199.5,23.3z"/>
	<path id="XMLID_16_" d="M238.1,19.3c-0.8,3.3-1.5,6.5-2.3,9.6c-1.7,6.7-1.9,10.6-0.6,11.9c0.7,0.7,2,1,3.7,0.8
		c1.9-0.4,3.9-1.9,6.2-4.6l1.1-7.7l1.7-11.3l9.9,0.2c-0.8,6.1-1.3,11.3-1.7,15.4c-0.2,4-0.4,9.1-0.6,15.2L244,49.1l0.3-3.5
		c-3.4,2.1-6.2,3.3-8.4,3.5c-4.7,0.7-8.1-0.3-10.1-3.1c-1.3-1.8-1.8-4.8-1.4-9c0.2-1.9,0.7-5.4,1.7-10.4c0.6-3.1,1.1-6,1.7-9
		L238.1,19.3z"/>
	<path id="XMLID_18_" d="M273.8,34.9l-1.1,13.6l-11.3,0.4l3.7-30.9h11l-1.1,7.1c2.1-1.8,3.9-3.3,5.6-4.4c2.6-1.8,5.1-2.8,7.3-2.9
		c1.9-0.1,3.5,0.3,4.8,1.3c1.5,1.1,2.3,2.8,2.5,5c0.2,1.9-0.3,4.7-1.4,8.1l-11-0.2c0.7-1.8,0.8-3,0.3-3.5c-0.8-0.7-2-0.3-3.7,1
		L273.8,34.9z"/>
	<path id="XMLID_20_" d="M309,36.4c-0.4,1.4-0.3,2.7,0.3,4c0.6,1.3,1.6,2.1,3.1,2.5c2.3,0.7,4.6,0.6,7-0.4c1.3-0.4,3.2-1.7,5.6-4
		l4.5,3.5c-3.2,3.5-6.7,5.7-10.4,6.7c-2.6,0.7-5.5,0.8-8.7,0.4c-3.4-0.4-6-1.4-7.9-2.9c-1.9-1.5-3-3.5-3.4-5.8
		c-0.6-2.9-0.6-5.4,0-7.5c1.5-5.6,4.1-9.5,7.9-11.9c2.6-1.7,5.4-2.7,8.4-3.1c4.3-0.6,8-0.1,11,1.5c3.8,1.9,5.6,4.8,5.6,8.6
		c0,2.6-0.6,5.2-1.7,7.7L309,36.4z M321.4,30.8c0.4-1.9,0.5-3.4,0.3-4.4c-0.2-1.7-0.9-2.7-2.3-3.1c-2.6-0.8-4.9,0-6.8,2.5
		c-0.8,1-1.5,2.7-2.3,5.2L321.4,30.8z"/>
	<path id="XMLID_23_" d="M343.1,32v-4.2l28.4-0.4v3.1C359.5,31,350.1,31.5,343.1,32z"/>
	<path id="XMLID_25_" d="M385.1,39.9c2.3,0.7,4.7,1.3,7.3,1.9c0.9,0.3,2.3,0.5,4.2,0.6c1.5,0.1,2.4-0.1,2.8-0.8c0.6-1,0.2-2-1.1-3.1
		c-1.3-0.7-2.6-1.4-3.9-2.1c-3.9-2.1-6.3-4.5-7-7.3c-0.9-3.3,0.1-6.1,3.1-8.3c1.9-1.4,4.9-2.4,9-2.9c3.2-0.4,6.3-0.3,9.3,0.2
		c3.8,0.7,6.1,2.2,7,4.6c0.6,1.4,0.5,3.1-0.3,5.2l-10.4-0.2c0.2-3.2-1-4.8-3.7-4.8c-2.3,0-3.5,1.3-3.7,3.8c-0.2,1.5,1.3,3.1,4.5,4.8
		c3.2,1.7,5.4,3.1,6.8,4.2c3.2,2.6,4.1,5.6,2.8,8.8c-0.8,1.8-2.9,3.1-6.5,4c-2.3,0.6-4.9,0.8-7.9,0.8c-3.6,0-8.5-0.5-14.9-1.5
		L385.1,39.9z"/>
	<path id="XMLID_27_" d="M429.3,23.3l3.4-17.7l11,0.6L440.8,23h9.6v6l-10.1,0.4l-1.1,19h-12.4l1.4-17.9l-8.4,1l0.6-8.1L429.3,23.3z"
		/>
	<path id="XMLID_29_" d="M473.8,17.8c8.3-0.3,13.4,2.4,15.5,7.9c0.9,2.9,1.1,6,0.6,9.4c-0.6,3.2-1.9,6-3.9,8.3
		c-2.4,2.6-5.5,4.4-9.3,5.2c-3.4,0.7-6.5,0.9-9.3,0.6c-4.7-0.4-8.2-1.8-10.4-4.2c-2.4-2.5-3.4-6.3-2.8-11.5
		c0.6-4.7,2.7-8.6,6.5-11.7C463.7,19.4,468.1,18,473.8,17.8z M469.8,43.7c2.6,0.6,4.8-0.3,6.5-2.7c0.9-1.3,1.6-3.6,2-7.1
		c0.2-2.2,0.2-4.3,0-6.3c-0.2-1.8-1-3-2.5-3.5c-2.8-1-5.2-0.5-7,1.5c-2.8,2.9-3.9,6.8-3.4,11.7C465.7,41,467.2,43.1,469.8,43.7z"/>
	<path id="XMLID_32_" d="M506.1,34.9L505,48.5l-11.3,0.4l3.7-30.9h11l-1.1,7.1c2.1-1.8,3.9-3.3,5.6-4.4c2.6-1.8,5.1-2.8,7.3-2.9
		c1.9-0.1,3.5,0.3,4.8,1.3c1.5,1.1,2.3,2.8,2.5,5c0.2,1.9-0.3,4.7-1.4,8.1l-11-0.2c0.7-1.8,0.8-3,0.3-3.5c-0.8-0.7-2-0.3-3.7,1
		L506.1,34.9z"/>
	<path id="XMLID_34_" d="M541.3,36.4c-0.4,1.4-0.3,2.7,0.3,4s1.6,2.1,3.1,2.5c2.3,0.7,4.6,0.6,7-0.4c1.3-0.4,3.2-1.7,5.6-4l4.5,3.5
		c-3.2,3.5-6.7,5.7-10.4,6.7c-2.6,0.7-5.5,0.8-8.7,0.4c-3.4-0.4-6-1.4-7.9-2.9c-1.9-1.5-3-3.5-3.4-5.8c-0.6-2.9-0.6-5.4,0-7.5
		c1.5-5.6,4.1-9.5,7.9-11.9c2.6-1.7,5.4-2.7,8.4-3.1c4.3-0.6,8-0.1,11,1.5c3.8,1.9,5.6,4.8,5.6,8.6c0,2.6-0.6,5.2-1.7,7.7
		L541.3,36.4z M553.7,30.8c0.4-1.9,0.5-3.4,0.3-4.4c-0.2-1.7-0.9-2.7-2.3-3.1c-2.6-0.8-4.9,0-6.8,2.5c-0.8,1-1.5,2.7-2.3,5.2
		L553.7,30.8z"/>
</g>
</svg>
